<svg width="498" height="300" viewBox="0 0 498 300" fill="none" xmlns="http://www.w3.org/2000/svg">
<path opacity="0.2" d="M362.337 35.5341C341.71 34.8164 322.064 28.1531 303.305 20.8614C284.546 13.5697 265.965 5.49013 245.832 1.62738C232.883 -0.857407 218.073 -1.20828 207.641 5.73893C197.599 12.4373 194.354 23.9682 192.611 34.6793C191.298 42.7365 190.527 51.2179 194.122 58.7584C196.62 63.996 201.05 68.3978 204.116 73.4152C214.784 90.8693 207.243 112.394 195.687 129.436C190.269 137.433 183.974 145.066 179.789 153.57C175.605 162.073 173.67 171.831 177.332 180.513C180.959 189.125 189.606 195.581 198.972 200.127C217.996 209.361 240.405 212.002 262.271 213.498C310.661 216.812 359.306 215.377 407.823 213.941C425.779 213.409 443.811 212.87 461.474 210.091C471.284 208.548 481.41 206.101 488.533 200.187C497.571 192.682 499.812 179.974 493.753 170.561C483.593 154.775 455.508 150.855 448.398 133.915C444.49 124.588 448.503 114.202 454.185 105.552C466.373 87.0002 486.799 70.7231 487.873 49.5178C488.612 34.9536 478.793 20.367 463.61 13.474C447.696 6.25248 425.626 7.15836 413.891 19.1166C401.796 31.4289 380.551 36.1657 362.337 35.5341Z" fill="white"/>
<path opacity="0.2" d="M322.641 275.453C386.792 275.453 438.796 268.418 438.796 259.739C438.796 251.061 386.792 244.026 322.641 244.026C258.491 244.026 206.486 251.061 206.486 259.739C206.486 268.418 258.491 275.453 322.641 275.453Z" fill="white"/>
<path opacity="0.1" d="M468.109 258.555C473.792 258.555 478.399 257.776 478.399 256.816C478.399 255.856 473.792 255.077 468.109 255.077C462.425 255.077 457.818 255.856 457.818 256.816C457.818 257.776 462.425 258.555 468.109 258.555Z" fill="#0E5F75"/>
<path opacity="0.1" d="M172.695 272.823C178.378 272.823 182.986 272.045 182.986 271.085C182.986 270.124 178.378 269.346 172.695 269.346C167.012 269.346 162.404 270.124 162.404 271.085C162.404 272.045 167.012 272.823 172.695 272.823Z" fill="#0E5F75"/>
<path opacity="0.1" d="M212.502 282.151C218.185 282.151 222.793 281.373 222.793 280.413C222.793 279.452 218.185 278.674 212.502 278.674C206.818 278.674 202.211 279.452 202.211 280.413C202.211 281.373 206.818 282.151 212.502 282.151Z" fill="#0E5F75"/>
<path d="M445.582 278.047C454.068 278.047 460.948 276.884 460.948 275.449C460.948 274.014 454.068 272.85 445.582 272.85C437.096 272.85 430.217 274.014 430.217 275.449C430.217 276.884 437.096 278.047 445.582 278.047Z" fill="#27AE60"/>
<path d="M451.938 271.199C452.638 270.627 453.149 269.855 453.402 268.987C453.593 268.112 453.218 267.076 452.377 266.736C451.437 266.377 450.432 267.03 449.672 267.688C448.912 268.345 448.036 269.098 447.039 268.956C447.552 268.492 447.937 267.903 448.154 267.246C448.372 266.589 448.416 265.886 448.281 265.208C448.236 264.926 448.116 264.662 447.933 264.443C447.414 263.885 446.466 264.122 445.843 264.566C443.856 265.96 443.302 268.662 443.29 271.088C443.088 270.213 443.26 269.3 443.252 268.414C443.245 267.527 443.004 266.503 442.243 266.033C441.774 265.781 441.247 265.657 440.715 265.674C439.821 265.639 438.827 265.731 438.216 266.385C437.452 267.195 437.658 268.555 438.315 269.442C438.972 270.328 439.977 270.897 440.902 271.513C441.642 271.954 442.273 272.556 442.748 273.274C442.805 273.375 442.851 273.481 442.885 273.591H448.468C449.727 272.954 450.894 272.149 451.938 271.199Z" fill="#27AE60"/>
<path d="M213.033 237.683C213.033 237.683 215.134 240.43 212.066 244.561C208.997 248.692 206.468 252.204 207.48 254.791C207.48 254.791 212.112 247.091 215.887 246.984C219.663 246.877 217.179 242.314 213.033 237.683Z" fill="#27AE60"/>
<path opacity="0.1" d="M213.032 237.683C213.215 237.949 213.36 238.24 213.46 238.547C217.136 242.865 219.097 246.896 215.562 246.995C212.272 247.091 208.324 252.976 207.377 254.462C207.407 254.577 207.445 254.688 207.488 254.802C207.488 254.802 212.119 247.102 215.894 246.995C219.67 246.888 217.178 242.314 213.032 237.683Z" fill="black"/>
<path d="M216.934 241.183C216.934 242.15 216.827 242.933 216.694 242.933C216.56 242.933 216.453 242.15 216.453 241.183C216.453 240.217 216.587 240.671 216.72 240.671C216.854 240.671 216.934 240.217 216.934 241.183Z" fill="#FFD037"/>
<path d="M218.274 242.337C217.426 242.8 216.685 243.079 216.623 242.96C216.562 242.842 217.193 242.372 218.041 241.909C218.889 241.447 218.557 241.783 218.618 241.909C218.679 242.035 219.123 241.875 218.274 242.337Z" fill="#FFD037"/>
<path d="M201.948 237.683C201.948 237.683 199.846 240.43 202.914 244.561C205.983 248.692 208.512 252.204 207.5 254.791C207.5 254.791 202.872 247.091 199.093 246.984C195.314 246.877 197.794 242.314 201.948 237.683Z" fill="#27AE60"/>
<path opacity="0.1" d="M201.947 237.683C201.763 237.949 201.617 238.24 201.515 238.547C197.839 242.865 195.882 246.896 199.413 246.995C202.707 247.091 206.654 252.976 207.602 254.462C207.571 254.578 207.532 254.691 207.487 254.802C207.487 254.802 202.86 247.102 199.081 246.995C195.301 246.888 197.793 242.314 201.947 237.683Z" fill="black"/>
<path d="M198.041 241.183C198.041 242.15 198.152 242.933 198.286 242.933C198.419 242.933 198.526 242.15 198.526 241.183C198.526 240.217 198.393 240.671 198.259 240.671C198.125 240.671 198.041 240.217 198.041 241.183Z" fill="#FFD037"/>
<path d="M196.705 242.337C197.553 242.8 198.291 243.079 198.356 242.96C198.421 242.842 197.782 242.372 196.934 241.909C196.086 241.447 196.422 241.783 196.357 241.909C196.292 242.035 195.857 241.875 196.705 242.337Z" fill="#FFD037"/>
<path d="M198.711 254.443C198.711 254.443 204.58 254.26 206.353 253.002C208.126 251.745 215.383 250.236 215.819 252.257C216.254 254.279 224.642 262.303 218.016 262.357C211.39 262.41 202.616 261.325 200.851 260.251C199.085 259.178 198.711 254.443 198.711 254.443Z" fill="#A8A8A8"/>
<path opacity="0.2" d="M218.13 261.654C211.504 261.707 202.731 260.622 200.965 259.548C199.624 258.727 199.085 255.788 198.906 254.435H198.711C198.711 254.435 199.093 259.166 200.847 260.244C202.601 261.321 211.386 262.403 218.012 262.349C219.923 262.349 220.584 261.654 220.549 260.645C220.282 261.264 219.552 261.642 218.13 261.654Z" fill="black"/>
<path d="M166.226 285.861C166.226 293.668 129.614 300 84.4505 300C39.2869 300 2.67529 293.668 2.67529 285.861C2.67529 283.909 4.96041 282.051 9.09503 280.362C21.132 275.437 48.8477 271.937 81.424 271.734C82.429 271.726 83.4379 271.723 84.4505 271.723C129.614 271.723 166.226 278.054 166.226 285.861Z" fill="#3F3D56"/>
<path opacity="0.1" d="M81.4235 271.734C77.7592 277.708 72.79 282.775 66.8886 286.554C60.9872 290.334 54.3067 292.729 47.3479 293.559C40.3892 294.389 33.3328 293.633 26.7078 291.348C20.0828 289.062 14.0612 285.307 9.09448 280.362C21.1315 275.437 48.8472 271.937 81.4235 271.734Z" fill="black"/>
<path d="M42.7982 286.243C66.435 286.243 85.5965 265.713 85.5965 240.388C85.5965 215.063 66.435 194.533 42.7982 194.533C19.1614 194.533 0 215.063 0 240.388C0 265.713 19.1614 286.243 42.7982 286.243Z" fill="#3F3D56"/>
<path d="M95.3127 32.2274C101.381 55.6047 120.957 70.7145 139.081 66.0099L95.3127 32.2274Z" fill="#3F3D56"/>
<path d="M139.081 66.0099C132.945 42.37 144.345 18.9926 164.571 13.7427L139.081 66.0099Z" fill="#27AE60"/>
<path d="M107.743 31.2628C113.507 53.4688 127.523 69.01 139.081 66.01L107.743 31.2628Z" fill="#27AE60"/>
<path d="M139.082 66.0099C131.241 35.8033 143.813 6.45022 167.19 0.38208L139.082 66.0099Z" fill="#3F3D56"/>
<path d="M132.26 68.0987C132.26 68.0987 136.872 66.7484 138.015 65.3867C139.157 64.025 144.6 61.3404 145.363 62.8507C146.126 64.3609 154.417 68.9967 149.178 70.4018C143.939 71.8069 136.767 72.7505 135.147 72.2615C133.528 71.7726 132.26 68.0987 132.26 68.0987Z" fill="#A8A8A8"/>
<path opacity="0.2" d="M149.127 69.8203C143.888 71.2254 136.716 72.1689 135.097 71.68C133.863 71.3076 132.834 69.0896 132.413 68.0522C132.316 68.082 132.26 68.0986 132.26 68.0986C132.26 68.0986 133.528 71.7725 135.147 72.2614C136.767 72.7504 143.939 71.8068 149.178 70.4017C150.69 69.9961 151.074 69.3211 150.838 68.53C150.753 69.0671 150.253 69.5184 149.127 69.8203Z" fill="black"/>
<path d="M439.064 48.5603H131.069V227.014H439.064V48.5603Z" fill="#F2F2F2"/>
<path opacity="0.3" d="M307.23 102.727H138.33V191.189H307.23V102.727Z" fill="#0E5F75"/>
<path d="M387.966 98.8705H320.222V102.618H387.966V98.8705Z" fill="#3F3D56"/>
<path d="M418.811 105.789H320.222V109.536H418.811V105.789Z" fill="#3F3D56"/>
<path d="M387.966 122.509H320.222V126.256H387.966V122.509Z" fill="#3F3D56"/>
<path d="M387.966 150.183H320.222V153.93H387.966V150.183Z" fill="#3F3D56"/>
<path d="M418.811 129.427H320.222V133.175H418.811V129.427Z" fill="#3F3D56"/>
<path d="M418.811 136.346H320.222V140.093H418.811V136.346Z" fill="#3F3D56"/>
<path d="M418.811 143.264H320.222V147.012H418.811V143.264Z" fill="#3F3D56"/>
<path d="M355.68 166.902H320.222V176.704H355.68V166.902Z" fill="#27AE60"/>
<path d="M120.174 156.257C120.174 156.257 126.539 138.223 131.136 143.88C135.733 149.538 124.064 159.086 124.064 159.086L120.174 156.257Z" fill="#FFE1BD"/>
<path d="M90.1166 138.576L93.9456 139.995C93.9456 139.995 95.7744 148.124 95.0672 149.538C94.3599 150.953 94.0063 149.892 95.0672 152.721C96.128 155.55 99.3105 162.976 99.6641 164.036C100.018 165.097 120.174 157.318 120.174 153.428C120.174 153.428 124.417 158.379 126.539 159.44C126.539 159.44 103.2 176.413 100.018 178.535C96.8352 180.656 95.0672 179.596 92.2383 177.12C89.4093 174.645 77.3865 154.135 77.3865 154.135L90.1166 138.576Z" fill="#408DBE"/>
<path d="M100.372 264.109C100.372 264.109 100.019 267.999 99.3113 268.352C98.6041 268.706 93.2999 277.546 99.3113 279.314C105.323 281.083 108.859 280.375 110.273 281.083C111.688 281.79 136.441 283.204 136.794 279.314C137.148 275.425 124.772 274.717 124.772 274.717C124.772 274.717 113.456 267.292 111.688 263.402C109.92 259.512 100.372 264.109 100.372 264.109Z" fill="#2F2E41"/>
<path d="M28.5886 271.181C28.5886 271.181 20.1019 285.68 22.2236 287.448C24.3453 289.216 45.008 295.659 48.0374 295.934C51.9271 296.288 54.756 293.105 51.5735 291.337C48.391 289.569 41.6723 282.143 41.6723 279.668V273.303L28.5886 271.181Z" fill="#2F2E41"/>
<path d="M20.4542 176.413C20.4542 176.413 13.0284 185.607 24.6976 200.459L44.1464 225.212C44.1464 225.212 32.1235 244.307 31.7699 254.208C31.4163 264.109 28.941 261.987 28.2337 266.231C27.5265 270.474 24.344 268.353 26.8193 271.535C29.2946 274.718 38.4885 277.546 41.3175 275.071C44.1464 272.596 44.1464 269.413 44.1464 267.999C44.1464 266.584 49.097 258.451 49.4506 255.976C49.8042 253.501 62.8879 233.345 62.8879 233.345C62.8879 233.345 67.1313 221.322 62.1807 214.603C57.2301 207.885 53.9587 198.356 53.9587 198.356C53.9587 198.356 68.5457 216.018 78.8005 220.261C78.8005 220.261 82.6903 220.968 81.983 222.736C81.2758 224.504 81.983 225.565 83.0439 227.333C84.1047 229.101 91.5306 249.611 94.0059 254.915C96.4812 260.219 95.4204 263.402 98.2493 265.17C101.078 266.938 113.808 265.524 113.808 263.756C113.808 261.987 112.04 257.391 110.979 254.915C109.919 252.44 101.432 223.797 102.139 218.847C102.846 213.896 101.785 207.177 96.4812 204.348C91.177 201.52 64.3023 178.535 62.8879 178.535C61.4734 178.535 20.4542 176.413 20.4542 176.413Z" fill="#2F2E41"/>
<path d="M91.5317 120.895C99.7341 120.895 106.383 114.246 106.383 106.044C106.383 97.8413 99.7341 91.1919 91.5317 91.1919C83.3293 91.1919 76.6799 97.8413 76.6799 106.044C76.6799 114.246 83.3293 120.895 91.5317 120.895Z" fill="#FFE1BD"/>
<path d="M79.5088 107.458C79.5088 107.458 74.9118 115.591 69.254 116.652C63.5962 117.713 84.1058 133.979 84.1058 133.979C84.1058 133.979 89.0563 118.42 93.2997 117.713C97.5431 117.006 79.5088 107.458 79.5088 107.458Z" fill="#FFE1BD"/>
<path d="M94.0061 140.698C94.0061 145.295 80.2152 158.379 80.2152 158.379L67.1315 169.341C67.1315 169.341 66.7778 173.23 65.3634 173.584C63.9489 173.938 62.1809 173.938 63.5953 176.059C65.0098 178.181 68.5459 182.778 65.3634 183.485C64.4039 183.631 63.4371 183.723 62.4673 183.761C61.6186 183.81 60.6215 183.856 59.5005 183.899C56.8837 183.991 53.6093 184.051 50.0625 184.026C49.0547 184.023 48.0292 184.011 46.9861 183.991C33.6159 183.726 18.1276 182.187 19.3936 177.12C21.5153 168.633 20.1008 165.804 24.6978 161.208C29.2948 156.611 36.7207 140.698 36.7207 140.698C36.7207 140.698 51.5724 115.591 63.9489 115.591L66.5197 114.916C67.7142 114.601 68.9775 114.67 70.1306 115.113C71.2837 115.556 72.2682 116.351 72.9448 117.384C75.4272 121.164 79.3417 126.843 81.6296 128.675C85.1658 131.504 85.7174 129.474 85.7174 129.474C85.7174 129.474 94.0061 136.101 94.0061 140.698Z" fill="#408DBE"/>
<path d="M62.5351 194.447C62.5351 194.447 72.7899 210.36 66.4249 213.189C60.0598 216.018 56.5237 196.569 56.5237 196.569L62.5351 194.447Z" fill="#FFE1BD"/>
<path d="M81.8224 104.366C82.3924 104.294 82.5727 103.575 82.6686 103.009C83.1824 99.9753 85.443 97.0988 88.4803 96.6092C89.6413 96.4547 90.8218 96.5498 91.943 96.8882C93.5493 97.329 95.057 98.0711 96.386 99.0751C97.0875 99.6056 97.7625 100.221 98.6063 100.469C99.1636 100.633 101.53 101.685 102.083 101.863C103.298 102.254 104.304 103.527 105.556 103.275C106.754 103.034 107.209 101.587 107.401 100.381C107.84 97.6323 106.267 93.5312 104.702 91.229C103.515 89.4819 101.507 88.4764 99.4984 87.8223C97.1456 87.1081 94.7281 86.6277 92.281 86.3882C88.9775 85.998 85.5561 85.791 82.3902 86.8122C79.2244 87.8333 76.3417 90.3312 75.7507 93.6047C75.6276 94.2866 75.6045 94.985 75.4537 95.6613C75.0856 97.3112 73.994 98.698 73.3572 100.264C72.8978 101.414 72.6846 102.647 72.7311 103.885C72.7777 105.122 73.0831 106.336 73.6276 107.449C74.5094 109.222 76.0427 110.926 75.7118 112.878L78.4406 110.727C78.8349 110.503 79.1405 110.15 79.3062 109.728C79.472 109.306 79.488 108.839 79.3515 108.407L78.9548 104.99C78.8821 104.364 78.8189 103.689 79.1318 103.143C80.3446 101.024 80.8721 104.486 81.8224 104.366Z" fill="#2F2E41"/>
<path opacity="0.1" d="M56.1701 170.048L59.5011 183.899C56.1417 184.019 51.6969 184.083 46.9867 183.991C45.7985 180.426 44.6634 176.71 43.7936 173.23C40.611 160.5 45.9152 141.051 48.7442 131.857C51.5731 122.664 58.6454 120.188 58.6454 120.188C58.6454 120.188 62.1815 121.249 66.7785 124.432C71.3755 127.614 56.1701 170.048 56.1701 170.048Z" fill="black"/>
<path opacity="0.1" d="M58.9994 169.341L62.4684 183.761C61.6197 183.811 60.6225 183.856 59.5015 183.899C56.8848 183.991 53.6103 184.051 50.0636 184.026C48.7871 180.239 47.5529 176.243 46.6229 172.523C43.4404 159.793 48.7446 140.344 51.5735 131.15C54.4024 121.956 60.5907 132.034 60.5907 132.034C60.5907 132.034 58.1154 126.023 62.7123 129.205C67.3093 132.388 58.9994 169.341 58.9994 169.341Z" fill="black"/>
<path d="M60.0592 119.481C60.0592 119.481 52.9869 121.956 50.158 131.15C47.3291 140.344 42.0249 159.793 45.2074 172.523C48.3899 185.253 55.1086 201.166 55.1086 201.166C55.1086 201.166 61.8272 196.215 64.3025 197.276L57.5839 169.341C57.5839 169.341 72.7893 126.907 68.1923 123.724C63.5953 120.542 60.0592 119.481 60.0592 119.481Z" fill="#408DBE"/>
<path d="M299.969 93.5558H131.069V182.018H299.969V93.5558Z" fill="#3F3D56"/>
<path d="M218.662 158.666C229.217 158.666 237.775 150.094 237.775 139.519C237.775 128.944 229.217 120.371 218.662 120.371C208.106 120.371 199.549 128.944 199.549 139.519C199.549 150.094 208.106 158.666 218.662 158.666Z" fill="white"/>
<path d="M218.661 117.108C214.143 117.108 209.727 118.447 205.97 120.957C202.214 123.467 199.286 127.035 197.557 131.209C195.829 135.383 195.376 139.975 196.258 144.406C197.139 148.837 199.314 152.908 202.509 156.102C205.704 159.297 209.774 161.472 214.205 162.354C218.636 163.235 223.228 162.783 227.402 161.054C231.576 159.325 235.144 156.397 237.654 152.641C240.164 148.884 241.503 144.468 241.503 139.95C241.486 133.897 239.073 128.098 234.793 123.818C230.513 119.538 224.714 117.126 218.661 117.108ZM213.972 152.129L202.265 140.422L205.549 137.139L213.983 145.573L231.784 127.771L235.068 131.055L213.972 152.129Z" fill="#27AE60"/>
</svg>
